Coordinates
version=1
nRows=27
nColumns=12
inDegrees=yes

Units are S.I. units (second, meters, Newtons, ...)
Angles are in degrees

endheader
time	SC_y	SC_z	SC_x	AC_y	AC_z	AC_x	GH_y	GH_z	GH_yy	EL_x	PS_y
       0.0              -24.66          6.221           42.9          32.08         -8.313          10.22         -136.8          70.65          78.62           38.1          61.17
   0.02356              -24.66          6.224           42.9          32.08         -8.315          10.21         -136.8          70.64          78.64           38.1          61.17
   0.04712              -24.66          6.227           42.9          32.08         -8.316          10.21         -136.8          70.62          78.65           38.1          61.17
   0.07068              -24.66          6.231           42.9          32.09         -8.318          10.21         -136.8          70.61          78.67           38.1          61.16
   0.09424              -24.66          6.234          42.89           32.1          -8.32          10.21         -136.8          70.59          78.69          38.09          61.16
    0.1178              -24.66          6.238          42.89           32.1         -8.322          10.21         -136.8          70.58          78.71          38.09          61.15
    0.1414              -24.66          6.242          42.89          32.11         -8.324          10.21         -136.8          70.56          78.72          38.09          61.15
    0.1649              -24.66          6.246          42.88          32.11         -8.326          10.21         -136.8          70.54          78.75          38.08          61.14
    0.1885              -24.65          6.251          42.88          32.12         -8.329          10.21         -136.8          70.52          78.77          38.08          61.14
     0.212              -24.65          6.256          42.88          32.13         -8.332          10.21         -136.8           70.5          78.79          38.08          61.13
    0.2356              -24.65          6.261          42.87          32.14         -8.335          10.21         -136.8          70.48          78.82          38.07          61.12
    0.2592              -24.65          6.267          42.87          32.15         -8.338          10.21         -136.8          70.45          78.84          38.07          61.11
    0.2827              -24.65          6.273          42.86          32.16         -8.341           10.2         -136.9          70.42          78.87          38.06          61.11
    0.3063              -24.65          6.279          42.86          32.17         -8.345           10.2         -136.9           70.4          78.91          38.06           61.1
    0.3298              -24.64          6.287          42.85          32.18         -8.348           10.2         -136.9          70.36          78.94          38.05          61.09
    0.3534              -24.64          6.294          42.85          32.19         -8.353           10.2         -136.9          70.33          78.98          38.04          61.08
     0.377              -24.64          6.303          42.84           32.2         -8.357           10.2         -136.9          70.29          79.02          38.03          61.07
    0.4005              -24.64          6.312          42.83          32.22         -8.362           10.2         -136.9          70.25          79.06          38.03          61.05
    0.4241              -24.63          6.322          42.83          32.23         -8.368          10.19         -137.0          70.21          79.11          38.02          61.04
    0.4476              -24.63          6.333          42.82          32.25         -8.374          10.19         -137.0          70.16          79.16          38.01          61.03
    0.4712              -24.63          6.345          42.81          32.27          -8.38          10.19         -137.0          70.11          79.22           38.0          61.01
    0.4948              -24.62          6.359           42.8          32.29         -8.388          10.19         -137.0          70.05          79.29          37.99          60.99
    0.5183              -24.62          6.373          42.79          32.31         -8.396          10.18         -137.1          69.99          79.36          37.97          60.97
    0.5419              -24.61          6.389          42.78          32.33         -8.404          10.18         -137.1          69.92          79.44          37.96          60.95
    0.5654              -24.61          6.408          42.76          32.36         -8.414          10.18         -137.1          69.84          79.52          37.95          60.93
     0.589               -24.6          6.428          42.75          32.39         -8.425          10.17         -137.2          69.75          79.62          37.93           60.9
    0.6126               -24.6           6.45          42.73          32.43         -8.438          10.17         -137.2          69.65          79.73          37.91          60.87
